HIERARCHY
ROOT Hips
{
  OFFSET -33.9132 29.2015 117.021
  CHANNELS 6 Xposition Yposition Zposition Zrotation Xrotation Yrotation
  JOINT LeftUpLeg
  {
    OFFSET 8.64259 1.95398 -2.38835
    CHANNELS 3 Zrotation Xrotation Yrotation
    JOINT LeftLeg
    {
      OFFSET 43.7702 0 0
      CHANNELS 3 Zrotation Xrotation Yrotation
      JOINT LeftFoot
      {
        OFFSET 40.6238 0 0
        CHANNELS 3 Zrotation Xrotation Yrotation
        JOINT LeftToeBase
        {
          OFFSET 12.7242 0 0
          CHANNELS 3 Zrotation Xrotation Yrotation
          End Site
          {
            OFFSET 0 0 0
          }
        }
      }
    }
  }
  JOINT RightUpLeg
  {
    OFFSET -8.2249 1.95398 -2.59336
    CHANNELS 3 Zrotation Xrotation Yrotation
    JOINT RightLeg
    {
      OFFSET 43.5653 0 0
      CHANNELS 3 Zrotation Xrotation Yrotation
      JOINT RightFoot
      {
        OFFSET 40.6238 0 0
        CHANNELS 3 Zrotation Xrotation Yrotation
        JOINT RightToeBase
        {
          OFFSET 12.7242 0 0
          CHANNELS 3 Zrotation Xrotation Yrotation
          End Site
          {
            OFFSET 0 0 0
          }
        }
      }
    }
  }
  JOINT Spine
  {
    OFFSET 0.165834 0.87714 6.61349
    CHANNELS 3 Zrotation Xrotation Yrotation
    JOINT Spine1
    {
      OFFSET 7.38963 1.71661e-005 0
      CHANNELS 3 Zrotation Xrotation Yrotation
      JOINT Spine2
      {
        OFFSET 11.9445 1.14441e-005 0
        CHANNELS 3 Zrotation Xrotation Yrotation
        JOINT Spine3
        {
          OFFSET 14.7254 4.19617e-005 0
          CHANNELS 3 Zrotation Xrotation Yrotation
          JOINT Spine4
          {
            OFFSET 10.9679 0 0
            CHANNELS 3 Zrotation Xrotation Yrotation
            JOINT RightShoulder
            {
              OFFSET 2.46616 -1.6653 3.69651
              CHANNELS 3 Zrotation Xrotation Yrotation
              JOINT RightArm
              {
                OFFSET 13.0012 0 0
                CHANNELS 3 Zrotation Xrotation Yrotation
                JOINT RightForeArm
                {
                  OFFSET 28.7848 1.62311e-005 0
                  CHANNELS 3 Zrotation Xrotation Yrotation
                  JOINT RightHand
                  {
                    OFFSET 26.5688 1.62095e-005 0
                    CHANNELS 3 Zrotation Xrotation Yrotation
                    End Site
                    {
                      OFFSET 0 0 0
                    }
                  }
                }
              }
            }
            JOINT LeftShoulder
            {
              OFFSET 2.38034 -1.29275 -3.7523
              CHANNELS 3 Zrotation Xrotation Yrotation
              JOINT LeftArm
              {
                OFFSET 16.3182 6.07031e-005 0
                CHANNELS 3 Zrotation Xrotation Yrotation
                JOINT LeftForeArm
                {
                  OFFSET 27.0901 0 0
                  CHANNELS 3 Zrotation Xrotation Yrotation
                  JOINT LeftHand
                  {
                    OFFSET 24.5451 1.51738e-005 0
                    CHANNELS 3 Zrotation Xrotation Yrotation
                    End Site
                    {
                      OFFSET 0 0 0
                    }
                  }
                }
              }
            }
            JOINT Neck
            {
              OFFSET 5.0226 -0.0266342 0
              CHANNELS 3 Zrotation Xrotation Yrotation
              JOINT Head
              {
                OFFSET 6.69364 2.86102e-005 0
                CHANNELS 3 Zrotation Xrotation Yrotation
                End Site
                {
                  OFFSET 0 0 0
                }
              }
            }
          }
        }
      }
    }
  }
}
MOTION
Frames:	9
Frame Time:	0.0416667
-235.33 68.655 224.694 101.524 47.179 86.325 -147.027 70.7434 57.4302 -7.79756 14.2503 -0.207656 22.1881 15.0595 -34.4718 149.59 0.701858 -60.6488 -160.326 -53.7391 116.36 -8.42262 -7.72847 0.841871 120.352 -14.0268 1.0412 20.8946 1.93943 5.30075 -0.764342 8.02139 -90.5175 10.8244 -1.76088 -0.865054 -0.845581 -1.7972 -0.786711 -23.3852 -1.41949 -1.35431 -3.37253 -1.41948 -1.35432 91.0145 -29.9108 -104.774 48.2482 7.63257 2.17781 -6.06819 -51.5495 -5.95992 -48.1645 12.1209 -32.2517 -89.673 -49.5394 79.1202 -24.2387 -8.59847 -31.5634 -11.1903 28.2949 -0.0169491 10.61 -0.565029 -10.3103 2.69291 -1.02749 -7.36721 -4.11162 0.213213 -2.27889 
-230.282 69.5864 219.833 103.734 46.4222 85.5773 -154.401 69.8824 65.2257 -7.83226 20.447 0.390857 21.4373 11.2009 -32.4864 149.752 -0.0799816 -61.4521 -158.413 -57.0027 118.547 -8.06438 -8.34495 0.361901 116.387 -15.2795 0.453927 19.8777 2.64574 4.46166 -0.5885 7.99856 -90.5854 10.8696 -1.44214 -1.02912 -0.800885 -1.48606 -0.964665 -23.3367 -1.06621 -1.41496 -3.32407 -1.0662 -1.41496 91.2299 -29.8351 -104.371 51.0931 6.69618 2.34764 -4.70526 -32.1748 -5.15302 -13.2296 -0.620781 -6.44256 -89.4531 -48.0011 79.1262 -26.9025 -11.0129 -24.3999 -10.2359 32.273 -0.0176508 4.83874 -0.0510015 -12.0577 2.12517 -1.14322 -7.68481 -5.0878 0.123971 -1.8458 
-224.881 70.299 214.916 103.833 47.8402 85.5093 -158.363 67.9574 67.7155 -4.13463 23.4239 0.249241 19.217 8.85437 -32.5462 150.009 -0.900534 -62.2785 -158.199 -58.6491 120.082 -8.10597 -6.73089 0.536599 117.697 -16.0354 1.59106 22.1554 1.79304 4.09097 -0.397397 7.94161 -90.6411 10.9817 -1.08798 -1.17296 -0.689254 -1.13857 -1.12396 -23.222 -0.685222 -1.44568 -3.20932 -0.685215 -1.44568 91.2908 -29.2622 -104.451 49.8908 6.49675 0.29204 -4.83779 -34.5361 -5.20325 -14.1512 1.56853 -18.3419 -89.3533 -48.2396 79.3252 -24.7423 -10.477 -14.2131 -10.7536 32.8401 -0.0177627 5.57089 -0.113735 -11.4516 1.98251 -2.01645 -6.8413 -3.75188 -0.908827 -1.53754 
-221.263 71.4497 211.632 105.006 47.8391 82.6415 -161.287 66.3687 69.6189 -2.95914 13.2234 0.157073 20.1147 17.1882 -35.8663 150.779 -0.221551 -61.2921 -163.945 -61.7791 114.164 -8.41542 -7.78541 0.719205 118.526 -16.3202 2.40836 23.7181 1.29073 3.52909 0.139514 8.04423 -90.3304 10.7902 0.125387 -0.667638 -0.88094 0.0958882 -0.672516 -23.415 0.320247 -0.599085 -3.40233 0.320256 -0.599086 90.998 -30.35 -104.654 49.2931 5.27729 -4.43879 -4.84375 -34.6532 -5.20883 -19.805 1.62916 -14.9473 -88.2413 -45.5214 80.4907 -25.816 -11.9189 -6.42656 -10.2516 27.4371 -0.0168155 6.45476 -0.665316 -15.4335 0.679918 -3.68937 -9.69829 -2.02989 -2.23646 0.140938 
-220.332 72.8819 210.559 103.729 46.1341 80.553 -163.441 67.7306 71.6676 -4.37433 -0.799182 0.13957 23.6034 21.9067 -39.5059 151.679 1.22898 -59.4631 -176.994 -62.9624 99.5098 -8.3561 -11.1725 -0.070015 118.174 -16.3879 2.74913 23.7193 1.32595 3.41202 0.597713 8.09755 -90.0615 10.6803 1.16198 -0.228344 -0.99012 1.15081 -0.279281 -23.5294 1.1769 0.131481 -3.51678 1.1769 0.131487 92.0909 -27.323 -103.491 47.9013 3.98207 -10.6988 -5.47447 -44.4686 -5.55623 -16.8686 1.81339 -17.9322 -87.7345 -46.6877 81.5166 -23.3578 -11.0616 -1.41963 -10.6479 24.3062 -0.0184112 5.81195 -0.869419 -17.8047 1.4472 -4.24583 -6.35374 -2.95215 -3.22527 -1.40735 
-219.95 73.7302 209.735 102.633 45.4093 79.5475 -166.126 70.0888 73.7834 -7.47447 -0.317249 -0.102279 25.5408 11.376 -36.9826 151.171 1.92157 -58.8579 175.167 -62.9369 91.2955 -7.56557 -12.1884 -1.26204 117.011 -16.6128 1.99534 25.7026 0.595724 2.95178 0.800421 8.15338 -90.0356 10.5697 1.57774 -0.213056 -1.10032 1.56684 -0.28232 -23.6431 1.56879 0.271087 -3.63047 1.56882 0.271083 92.2252 -24.9591 -104.061 48.9413 1.53324 -16.6166 -4.82654 -34.3486 -5.20082 -23.2208 2.21779 -16.2391 -87.6381 -49.9061 82.2479 -20.0317 -9.8773 1.1639 -11.263 23.79 -0.0581703 5.16179 -0.873824 -18.8336 2.47843 -3.32333 0.814922 -2.93938 -3.41552 -4.55171 
-218.327 73.6149 207.647 102.528 44.7419 79.3688 -164.371 70.3894 72.6323 -8.38438 0.0712865 -1.21379 26.2834 4.8998 -35.1231 150.433 2.48726 -58.4416 168.998 -63.6004 84.8841 -7.44506 -13.758 -1.40751 116.187 -18.2649 1.90966 28.4252 -0.248469 1.63729 0.969436 8.22751 -90.1822 10.4234 1.84777 -0.524033 -1.24636 1.82292 -0.604891 -23.792 1.9198 0.0557191 -3.77934 1.91979 0.0557134 91.3096 -25.3115 -105.892 45.2776 2.44433 -20.3151 -4.91137 -35.8224 -5.23751 -23.1188 2.87761 -19.7513 -87.5184 -52.4277 82.8605 -19.9775 -10.2569 2.47762 -11.1961 23.1019 -0.0298812 5.40689 -0.829646 -17.588 3.06066 -2.84152 4.0898 -2.17982 -3.49402 -3.90539 
-215.014 73.6961 204.361 102.343 42.8029 78.8055 -163.358 70.0518 72.808 -8.33474 2.48524 -1.70022 26.8583 3.50217 -33.1359 151.061 1.85485 -58.9547 160.682 -63.9227 75.5464 -8.50917 -14.4324 -2.57356 111.376 -15.9372 2.61801 33.0025 -2.51686 2.91996 1.18917 8.16068 -90.0433 10.5571 2.3487 -0.296232 -1.11176 2.33337 -0.399378 -23.6636 2.32909 0.423741 -3.65096 2.32908 0.423736 90.2653 -27.1333 -107.357 44.2511 3.23341 -19.7159 -4.97939 -36.9804 -5.2734 -21.154 2.92175 -21.2629 -87.7574 -53.3416 82.6609 -21.053 -12.496 4.54733 -10.3632 23.2823 -0.0203664 4.11907 -0.63925 -17.6642 1.88027 -2.81439 1.7287 -1.57707 -3.06432 -1.76994 
-211.325 74.9352 200.947 101.418 40.8887 77.4539 -157.238 69.088 67.3851 -8.16535 4.05228 -1.33087 27.8755 4.25005 -32.537 151.393 1.18899 -59.587 151.158 -61.8547 63.4307 -8.75245 -21.3749 -1.42887 90.2424 -9.48394 -2.7086 43.5807 -7.22762 7.10744 1.20977 7.96636 -89.6872 10.9388 2.55328 0.380477 -0.729642 2.56755 0.26766 -23.2817 2.32084 1.13064 -3.26905 2.32085 1.13064 90.0786 -27.3544 -107.652 48.6268 2.18633 -15.1517 -4.7889 -33.6608 -5.18098 -20.1616 2.21538 -18.0599 -87.2464 -52.962 83.3411 -22.0872 -14.3353 4.8475 -9.7326 23.5849 -0.0151975 2.53614 -0.255406 -15.287 1.90632 -2.20278 1.00616 -3.68812 -2.30612 -3.16572 
